<?xml version="1.0" encoding="UTF-8" standalone="no"?>
<!DOCTYPE svg PUBLIC "-//W3C//DTD SVG 1.1//EN" "http://www.w3.org/Graphics/SVG/1.1/DTD/svg11.dtd">
<!-- Gegenereerd door Microsoft Visio, SVG Export Logo CASA kleur.svg Page-2 -->
<svg xmlns="http://www.w3.org/2000/svg" xmlns:xlink="http://www.w3.org/1999/xlink" xmlns:ev="http://www.w3.org/2001/xml-events"
		xmlns:v="http://schemas.microsoft.com/visio/2003/SVGExtensions/" width="8.26772in" height="11.6929in"
		viewBox="0 0 595.276 841.89" xml:space="preserve" color-interpolation-filters="sRGB" class="st9">
	<v:documentProperties v:langID="1043" v:metric="true" v:viewMarkup="false">
		<v:userDefs>
			<v:ud v:nameU="msvNoAutoConnect" v:val="VT0(1):26"/>
		</v:userDefs>
	</v:documentProperties>

	<style type="text/css">
	<![CDATA[
		.st1 {fill:#92d050;stroke:#000000;stroke-linecap:round;stroke-linejoin:round;stroke-width:4.5}
		.st2 {stroke:#000000;stroke-linecap:round;stroke-linejoin:round;stroke-width:6}
		.st3 {stroke:#000000;stroke-linecap:round;stroke-linejoin:round;stroke-width:4.5}
		.st4 {fill:#c05046;stroke:#000000;stroke-linecap:round;stroke-linejoin:round;stroke-width:4.5}
		.st5 {stroke:#000000;stroke-linecap:round;stroke-linejoin:round;stroke-width:2.25}
		.st6 {fill:none;stroke:none;stroke-linecap:round;stroke-linejoin:round;stroke-width:0.75}
		.st7 {fill:#c05046;font-family:Bernard MT Condensed;font-size:2.50001em;font-weight:bold}
		.st8 {fill:#ffff00;stroke:#000000;stroke-linecap:round;stroke-linejoin:round;stroke-width:3}
		.st9 {fill:none;fill-rule:evenodd;font-size:12px;overflow:visible;stroke-linecap:square;stroke-miterlimit:3}
	]]>
	</style>

	<g v:mID="4" v:index="2" v:groupContext="foregroundPage">
		<title>Pagina-2</title>
		<v:pageProperties v:drawingScale="0.0393701" v:pageScale="0.0393701" v:drawingUnits="24" v:shadowOffsetX="8.50394"
				v:shadowOffsetY="-8.50394"/>
		<g id="shape1-1" v:mID="1" v:groupContext="shape" transform="translate(51.7323,-389.48)">
			<title>Blad.1</title>
			<ellipse cx="132.52" cy="717.732" rx="132.52" ry="124.157" class="st1"/>
		</g>
		<g id="shape2-3" v:mID="2" v:groupContext="shape" transform="translate(-639.579,434.226) rotate(-101.889)">
			<title>Blad.2</title>
			<path d="M0 841.89 L21.17 841.89" class="st2"/>
		</g>
		<g id="shape3-6" v:mID="3" v:groupContext="shape" transform="translate(-577.502,124.208) rotate(-80.2724)">
			<title>Blad.3</title>
			<path d="M0 841.89 L26.49 841.89" class="st2"/>
		</g>
		<g id="shape4-9" v:mID="4" v:groupContext="shape" transform="translate(170.079,-566.929)">
			<title>Blad.4</title>
			<path d="M0 841.89 L42.52 813.54 L99.21 841.89" class="st2"/>
		</g>
		<g id="shape5-12" v:mID="5" v:groupContext="shape" transform="translate(1026.43,265.321) rotate(90)">
			<title>Blad.5</title>
			<path d="M0 841.89 L23.81 841.89" class="st2"/>
		</g>
		<g id="shape6-15" v:mID="6" v:groupContext="shape" transform="translate(1094.17,266.457) rotate(90)">
			<title>Blad.6</title>
			<path d="M0 841.89 L22.68 841.89" class="st2"/>
		</g>
		<g id="shape7-18" v:mID="7" v:groupContext="shape" transform="translate(104.882,-464.269)">
			<title>Blad.7</title>
			<path d="M95.96 838.73 C112.94 816.82 58.12 800.03 54.83 781.21 C53.4 772.99 61.8 764.37 74.02 757.2 C76.46 755.76 79.05
						 754.39 82.53 753.4 C60.36 754.39 22.8 756.98 9.6 764.78 C-4.53 773.13 9.25 787.45 17.82 803.97 C26.93 821.51
						 30.16 841.54 0 841.89" class="st2"/>
		</g>
		<g id="shape8-21" v:mID="8" v:groupContext="shape" transform="translate(184.539,-547.81)">
			<title>Blad.8</title>
			<path d="M0 836.94 C3.2 835.27 2.44 832.34 2.55 829.86 C2.94 820.64 15.21 817.61 22.39 821.35 C29.6 825.11 31.68 835.7
						 36.56 839.78 C46.56 848.13 68.3 829.15 84.75 836.94" class="st3"/>
		</g>
		<g id="shape9-24" v:mID="9" v:groupContext="shape" transform="translate(106.583,-421.795)">
			<title>Blad.9</title>
			<rect x="0" y="799.37" width="6.80315" height="42.5197" class="st4"/>
		</g>
		<g id="shape10-26" v:mID="10" v:groupContext="shape" transform="translate(193.323,-420.945)">
			<title>Blad.10</title>
			<rect x="0" y="799.37" width="6.80315" height="42.5197" class="st4"/>
		</g>
		<g id="shape11-28" v:mID="11" v:groupContext="shape" transform="translate(-215.077,-355.077) rotate(-22.9638)">
			<title>Blad.11</title>
			<path d="M0 841.89 L36.33 841.89" class="st3"/>
		</g>
		<g id="shape12-31" v:mID="12" v:groupContext="shape" transform="translate(-695.055,405.921) rotate(-90)">
			<title>Blad.12</title>
			<path d="M0 841.89 L31.75 841.89" class="st3"/>
		</g>
		<g id="shape13-34" v:mID="13" v:groupContext="shape" transform="translate(155.906,-420.945)">
			<title>Blad.13</title>
			<path d="M0 795.12 L0 828.19 L37.42 841.89" class="st3"/>
		</g>
		<g id="shape14-37" v:mID="14" v:groupContext="shape" transform="translate(-60.8152,-440.969) rotate(-11.9621)">
			<title>Blad.14</title>
			<path d="M0 840.48 C1.96 840.39 4.49 841.53 6.66 841.89 C17.85 843.74 19.37 824.63 34.19 840.48" class="st3"/>
		</g>
		<g id="shape15-40" v:mID="15" v:groupContext="shape" transform="translate(-25.7297,1187.57) rotate(-164.745)">
			<title>Blad.15</title>
			<path d="M0 832.53 C6.61 833.11 11.01 834.78 16.76 837.95 C20.63 840.08 25.11 842.9 27.15 841.58 C28.4 840.76 28.73 838.36
						 31.18 836.95 C34.1 835.27 40.03 834.99 38.78 832.53" class="st3"/>
		</g>
		<g id="shape16-43" v:mID="16" v:groupContext="shape" transform="translate(962.362,385.512) rotate(90)">
			<title>Blad.16</title>
			<path d="M0 841.89 L31.58 841.89" class="st5"/>
		</g>
		<g id="shape17-46" v:mID="17" v:groupContext="shape" transform="translate(969.449,381.26) rotate(90)">
			<title>Blad.17</title>
			<path d="M0 841.89 L28.35 841.89" class="st5"/>
		</g>
		<g id="shape18-49" v:mID="18" v:groupContext="shape" transform="translate(976.535,374.173) rotate(90)">
			<title>Blad.18</title>
			<path d="M0 841.89 L32.48 841.89" class="st5"/>
		</g>
		<g id="shape19-52" v:mID="19" v:groupContext="shape" transform="translate(983.622,374.173) rotate(90)">
			<title>Blad.19</title>
			<path d="M0 841.89 L28.35 841.89" class="st5"/>
		</g>
		<g id="shape20-55" v:mID="20" v:groupContext="shape" transform="translate(1004.88,374.173) rotate(90)">
			<title>Blad.20</title>
			<path d="M0 841.89 L31.89 841.89" class="st5"/>
		</g>
		<g id="shape21-58" v:mID="21" v:groupContext="shape" transform="translate(1011.97,374.173) rotate(90)">
			<title>Blad.21</title>
			<path d="M0 841.89 L33.37 841.89" class="st5"/>
		</g>
		<g id="shape22-61" v:mID="22" v:groupContext="shape" transform="translate(1019.06,378.709) rotate(90)">
			<title>Blad.22</title>
			<path d="M0 841.89 L30.9 841.89" class="st5"/>
		</g>
		<g id="shape23-64" v:mID="23" v:groupContext="shape" transform="translate(1026.14,384.094) rotate(90)">
			<title>Blad.23</title>
			<path d="M0 841.89 L28.46 841.89" class="st5"/>
		</g>
		<g id="shape24-67" v:mID="24" v:groupContext="shape" transform="translate(70.8661,-548.339)">
			<title>Blad.24</title>
			<desc>CASA</desc>
			<v:textBlock v:margins="rect(4,4,4,4)" v:tabSpace="42.5197"/>
			<v:textRect cx="69.4466" cy="809.209" width="138.9" height="65.3622"/>
			<rect x="0" y="776.528" width="138.893" height="65.3622" class="st6"/>
			<text x="43.33" y="818.21" class="st7" v:langID="1043"><v:paragraph v:horizAlign="1"/><v:tabList/>CASA</text>		</g>
		<g id="shape25-70" v:mID="25" v:groupContext="shape" transform="translate(177.165,-503.717)">
			<title>Blad.25</title>
			<desc>MODERO</desc>
			<v:textBlock v:margins="rect(4,4,4,4)" v:tabSpace="42.5197"/>
			<v:textRect cx="53.1496" cy="821.197" width="106.3" height="41.3858"/>
			<rect x="0" y="800.504" width="106.299" height="41.3858" class="st6"/>
			<text x="5.62" y="830.2" class="st7" v:langID="1043"><v:paragraph v:horizAlign="1"/><v:tabList/>MODERO</text>		</g>
		<g id="shape26-73" v:mID="26" v:groupContext="shape" transform="translate(179.998,-609.449)">
			<title>Blad.26</title>
			<ellipse cx="9.92126" cy="831.969" rx="9.92126" ry="9.92126" class="st8"/>
		</g>
		<g id="shape27-75" v:mID="27" v:groupContext="shape" transform="translate(170.079,-595.276)">
			<title>Blad.27</title>
			<path d="M0 841.89 L42.52 813.54 L99.21 841.89" class="st2"/>
		</g>
	</g>
</svg>
